<svg width="33" height="33" viewBox="0 0 33 33" fill="none" xmlns="http://www.w3.org/2000/svg">
<path d="M18.3333 0H14.6667V18.3333H18.3333V0ZM27.1883 3.97833L24.585 6.58167C27.4817 8.91 29.3333 12.485 29.3333 16.5C29.3333 23.595 23.595 29.3333 16.5 29.3333C9.405 29.3333 3.66667 23.595 3.66667 16.5C3.66667 12.485 5.51833 8.91 8.39667 6.56333L5.81167 3.97833C2.255 7.00333 0 11.4767 0 16.5C0 25.6117 7.38833 33 16.5 33C25.6117 33 33 25.6117 33 16.5C33 11.4767 30.745 7.00333 27.1883 3.97833Z" fill="#3E80FE"/>
</svg>
